<svg width="118" height="18" viewBox="0 0 118 18" fill="none" xmlns="http://www.w3.org/2000/svg">
<path fill-rule="evenodd" clip-rule="evenodd" d="M13.5 6.1875H10.125V3.9375C10.125 3.63913 10.2435 3.35298 10.4545 3.142C10.6655 2.93103 10.9516 2.8125 11.25 2.8125H12.375V0H10.125C9.22989 0 8.37145 0.355579 7.73851 0.988515C7.10558 1.62145 6.75 2.47989 6.75 3.375V6.1875H4.5V9H6.75V18H10.125V9H12.375L13.5 6.1875Z" fill="#F7F7F7"/>
<g clip-path="url(#clip0_3931_782)">
<path d="M62.375 0H55.625C54.1332 0 52.7024 0.592632 51.6475 1.64752C50.5926 2.70242 50 4.13316 50 5.625V12.375C50 13.8668 50.5926 15.2976 51.6475 16.3525C52.7024 17.4074 54.1332 18 55.625 18H62.375C63.8668 18 65.2976 17.4074 66.3525 16.3525C67.4074 15.2976 68 13.8668 68 12.375V5.625C68 4.13316 67.4074 2.70242 66.3525 1.64752C65.2976 0.592632 63.8668 0 62.375 0V0ZM66.3125 12.375C66.3125 14.5462 64.5462 16.3125 62.375 16.3125H55.625C53.4538 16.3125 51.6875 14.5462 51.6875 12.375V5.625C51.6875 3.45375 53.4538 1.6875 55.625 1.6875H62.375C64.5462 1.6875 66.3125 3.45375 66.3125 5.625V12.375Z" fill="#F7F7F7"/>
<path d="M59 4.5C57.8065 4.5 56.6619 4.97411 55.818 5.81802C54.9741 6.66193 54.5 7.80653 54.5 9C54.5 10.1935 54.9741 11.3381 55.818 12.182C56.6619 13.0259 57.8065 13.5 59 13.5C60.1935 13.5 61.3381 13.0259 62.182 12.182C63.0259 11.3381 63.5 10.1935 63.5 9C63.5 7.80653 63.0259 6.66193 62.182 5.81802C61.3381 4.97411 60.1935 4.5 59 4.5ZM59 11.8125C58.2544 11.8116 57.5395 11.515 57.0122 10.9878C56.485 10.4605 56.1884 9.74565 56.1875 9C56.1875 7.44863 57.4497 6.1875 59 6.1875C60.5503 6.1875 61.8125 7.44863 61.8125 9C61.8125 10.5503 60.5503 11.8125 59 11.8125Z" fill="#F7F7F7"/>
<path d="M63.8374 4.76212C64.1686 4.76212 64.437 4.49366 64.437 4.16249C64.437 3.83133 64.1686 3.56287 63.8374 3.56287C63.5063 3.56287 63.2378 3.83133 63.2378 4.16249C63.2378 4.49366 63.5063 4.76212 63.8374 4.76212Z" fill="#F7F7F7"/>
</g>
<path d="M118 3.98135C117.323 4.27666 116.607 4.47293 115.874 4.5641C116.646 4.1058 117.224 3.38011 117.497 2.52447C116.774 2.95348 115.982 3.25558 115.157 3.41772C114.651 2.87747 113.994 2.50188 113.272 2.33974C112.55 2.1776 111.796 2.23641 111.107 2.50852C110.419 2.78064 109.828 3.25348 109.412 3.86563C108.996 4.47777 108.774 5.20091 108.774 5.9411C108.774 6.2336 108.799 6.51485 108.859 6.7826C107.391 6.71062 105.955 6.32961 104.644 5.66448C103.334 4.99935 102.178 4.06507 101.253 2.92272C100.779 3.73481 100.633 4.69697 100.844 5.61328C101.054 6.52958 101.606 7.33114 102.387 7.85472C101.803 7.83906 101.231 7.68318 100.72 7.40022V7.44072C100.721 8.29283 101.015 9.11859 101.554 9.77899C102.092 10.4394 102.842 10.8941 103.676 11.0666C103.361 11.1498 103.035 11.1907 102.709 11.1881C102.475 11.1923 102.24 11.1711 102.01 11.1251C102.249 11.8575 102.708 12.498 103.326 12.9583C103.943 13.4187 104.689 13.6763 105.459 13.6957C104.152 14.7173 102.541 15.2714 100.883 15.2696C100.581 15.2696 100.29 15.2561 100 15.219C101.687 16.3063 103.654 16.8815 105.661 16.875C112.451 16.875 116.164 11.25 116.164 6.37422C116.164 6.2111 116.158 6.0536 116.15 5.89722C116.878 5.37633 117.505 4.72709 118 3.98135V3.98135Z" fill="#F7F7F7"/>
<defs>
<clipPath id="clip0_3931_782">
<rect width="18" height="18" fill="white" transform="translate(50)"/>
</clipPath>
</defs>
</svg>
