<svg width="683" height="683" viewBox="0 0 683 683" fill="none" xmlns="http://www.w3.org/2000/svg">
<path d="M338.667 23.4666C302.133 36.8 299.333 86.8 334.4 102.667L341.333 105.867V138.267V170.667H314.667H288V126V81.2L284.667 78C281.467 74.6666 281.2 74.6666 257.6 74.6666H233.867L230.667 67.7333C226.8 59.2 218.8 50.9333 210 46.6666C200.4 42 183.6 42 174 46.6666C165.467 50.8 157.467 58.8 153.333 67.3333C148.667 76.9333 148.667 93.7333 153.333 103.333C157.467 111.867 165.467 119.867 174 124C179.467 126.667 182.667 127.333 192 127.2C201.6 127.2 204.4 126.667 210.133 123.733C220.4 118.4 224.533 114.267 229.467 104.667L234 96H250.4H266.667V133.333V170.667H183.6C130.4 170.667 97.6 171.2 92.5333 172.133C64.2667 177.2 38.5333 202.933 33.4667 231.2C32.4 236.533 32 290.667 32 396.267C32 534.8 32.2667 554.667 34.1333 563.733C38.4 584.667 47.8667 602 64.1333 619.333C81.7333 637.867 102.667 650.267 129.067 657.733L139.333 660.667L329.867 661.067C540 661.467 533.333 661.6 554.533 653.2C589.867 639.067 615.467 610.133 625.733 572.667C628.667 562.267 628.667 560.267 628.667 480C628.667 399.733 628.667 397.733 625.733 387.333C614.133 344.933 583.733 314.267 541.333 302.267C531.333 299.333 531.067 299.333 312.533 298.667L93.8667 298L83.7333 293.067C71.6 287.067 64.1333 279.333 58.2667 266.933C54.4 258.8 54 256.8 54 245.2C54 233.2 54.2667 232 58.9333 222.4C64.9333 210.267 72.6667 202.8 85.0667 196.933L94 192.667L180.4 192.267L266.667 191.867V199.333C266.667 205.467 267.2 207.333 270 210C272 212.133 274.8 213.333 277.333 213.333C284.133 213.333 288 208.267 288 199.333V192H314.667H341.333V199.333C341.333 208.267 345.2 213.333 352 213.333C358.8 213.333 362.667 208.267 362.667 199.333V192H389.333H416V199.333C416 208.267 419.867 213.333 426.667 213.333C429.2 213.333 432 212.133 434 210C436.8 207.333 437.333 205.467 437.333 199.333V191.867L502.4 192.267L567.333 192.667L576.267 196.933C588.667 202.8 596.4 210.267 602.4 222.4L607.333 232.533L608 273.733L608.667 314.933L611.867 317.467C616.267 321.067 622.133 320.667 626.133 316.667L629.6 313.2L629.067 271.6C628.533 230.8 628.533 229.867 625.2 221.2C620.4 208.667 615.867 201.6 607.467 192.933C599.2 184.533 591.6 179.733 578.8 174.8L570 171.333L503.733 170.933L437.333 170.533V133.2V96H453.733H470.133L473.333 102.933C477.2 111.467 485.2 119.733 494 124C499.467 126.667 502.667 127.333 512 127.333C522.267 127.2 524.133 126.8 531.733 122.8C541.067 117.733 545.2 113.467 550.4 103.467C553.333 97.7333 553.867 94.9333 553.867 85.3333C554 76 553.333 72.8 550.667 67.3333C546.533 58.8 538.533 50.8 530 46.6666C520.4 42 503.6 42 494 46.6666C485.2 50.9333 477.2 59.2 473.333 67.7333L470.133 74.6666H446.4C422.8 74.6666 422.533 74.6666 419.333 78L416 81.2V126V170.667H389.333H362.667V138.267V106L371.333 101.467C380.933 96.5333 385.067 92.4 390.4 82.1333C393.333 76.4 393.867 73.6 393.867 64C394 50.6666 390.8 42.8 382 34C371.067 23.0666 352.4 18.5333 338.667 23.4666ZM360.4 44.5333C374.133 50.2666 377.467 68.1333 366.8 78.8C351.867 93.8666 327.333 80.4 331.2 59.3333C333.6 46.8 348.267 39.3333 360.4 44.5333ZM200.4 65.8666C214.133 71.6 217.467 89.4666 206.8 100.133C198.133 108.8 185.867 108.8 177.2 100.133C160.667 83.7333 178.933 56.8 200.4 65.8666ZM520.4 65.8666C534.133 71.6 537.467 89.4666 526.8 100.133C511.867 115.2 487.333 101.733 491.2 80.6666C493.6 68.1333 508.267 60.6666 520.4 65.8666ZM61.8667 305.067C66.4 308.8 75.4667 313.467 84.6667 316.8C91.0667 319.2 100.667 319.333 310.667 320L530 320.667L540.667 324.267C556.133 329.6 567.2 336.533 579.333 348.667C591.467 360.8 598.4 371.867 603.733 387.333L607.333 398V480V562L603.733 572.667C598.4 588.133 591.467 599.2 579.333 611.333C567.2 623.467 556.133 630.4 540.667 635.733L530 639.333H336.667H143.333L132.933 636.267C94.4 625.2 64.5333 596.8 56 563.2C53.4667 553.333 53.3333 548 53.3333 425.6C53.3333 304.667 53.4667 298.4 55.7333 300.133C56.9333 301.067 59.7333 303.333 61.8667 305.067Z" fill="white"/>
<path d="M270 387.333C267.2 390 266.667 391.867 266.667 398V405.333H254C242.267 405.333 240.933 405.6 238 408.667C233.6 412.933 233.6 419.067 238 423.333C240.667 426.133 242.533 426.667 248.667 426.667H256V480V533.333H248.667C242.533 533.333 240.667 533.867 238 536.667C233.6 540.933 233.6 547.067 238 551.333C240.933 554.4 242.267 554.667 254 554.667H266.667V562C266.667 570.933 270.533 576 277.333 576C284.133 576 288 570.933 288 562V554.667H293.333H298.667V562C298.667 570.933 302.533 576 309.333 576C316.133 576 320 570.933 320 562.267V554.933L326.267 554C333.333 552.933 342.933 548.533 348.933 543.467C351.067 541.6 354.933 536.4 357.467 531.733C361.6 524 362 522.4 361.867 512C361.867 500 360 494.4 352.4 484.267L349.2 480L352.4 475.6C360 465.6 361.867 460 361.867 448C362 437.6 361.6 436 357.467 428.267C350.667 415.6 340 408 326.267 406L320 405.067V397.733C320 389.067 316.133 384 309.333 384C302.533 384 298.667 389.067 298.667 398V405.333H293.333H288V398C288 389.067 284.133 384 277.333 384C274.8 384 272 385.2 270 387.333ZM331.467 430.133C338.533 435.333 340.667 439.6 340.667 448C340.667 456.4 338.533 460.667 331.467 465.867C328.133 468.4 325.6 468.667 302.533 469.067L277.333 469.467V448V426.533L302.533 426.933C325.6 427.333 328.133 427.6 331.467 430.133ZM331.467 494.133C338.533 499.333 340.667 503.6 340.667 512C340.667 520.4 338.533 524.667 331.467 529.867C328.133 532.4 325.6 532.667 302.533 533.067L277.333 533.467V512V490.533L302.533 490.933C325.6 491.333 328.133 491.6 331.467 494.133Z" fill="white"/>
<path d="M490.667 449.733C484.133 451.867 472.933 463.333 470.933 470.133C467.2 482.667 469.867 492.667 479.333 502C492.933 515.733 511.733 515.467 524.4 501.333C536.8 487.6 536.4 470.933 523.333 458C514 448.533 503.067 445.867 490.667 449.733ZM508.667 472.667C515.333 479.2 510.667 490.667 501.333 490.667C495.867 490.667 490.667 485.467 490.667 480C490.667 474.533 495.867 469.333 501.333 469.333C503.867 469.333 506.667 470.533 508.667 472.667Z" fill="white"/>
<path d="M88.6666 238C86.5333 240 85.3333 242.8 85.3333 245.333C85.3333 247.867 86.5333 250.667 88.6666 252.667L91.8666 256H330.667H569.467L572.667 252.667C577.067 248.4 577.067 242.267 572.667 238L569.467 234.667H330.667H91.8666L88.6666 238Z" fill="white"/>
</svg>
